<svg xmlns="http://www.w3.org/2000/svg" xml:space="preserve" width="1500" height="226" data-id="lg_YZcx5NvyT8qwlayrKq" data-version="1" viewBox="0 0 1500 226"><g data-padding="20"><g transform="translate(10 3.29)scale(.97089)"><g transform="translate(264.97 397.52)"><filter id="a" width="168%" height="148%" x="-34%" y="-24%"><feGaussianBlur in="SourceAlpha" stdDeviation="3"/><feOffset dx="3" dy="3" result="oBlur"/><feFlood flood-color="#000" flood-opacity="1"/><feComposite in2="oBlur" operator="in"/><feMerge><feMergeNode/><feMergeNode in="SourceGraphic"/></feMerge></filter><g filter="url(#a)"><rect width="48.298" height="164.04" x="245.1" y="-294.613" fill="none" rx="0" ry="0" transform="scale(1.35)"/><path fill="#77f342" d="M343.967-370.86q0 .65.33 1.62l19.05 51.3 19.04-51.84q.11-.21.22-.65.11-.43.11-.64 0-1.3-1.03-1.9-1.03-.59-1.89-.59v-1.09h11.79v1.09q-1.62 0-2.97.86-1.36.87-2.11 2.92l-24.79 67.86-25.32-67.53q-.65-1.62-1.9-2.82-1.24-1.19-3.08-1.29v-1.09h15.37v1.09q-.98 0-1.9.7t-.92 2m-8.86 166.71v-1.08h.54q.86 0 1.51-.59.65-.6 1.14-1.46.49-.87.76-1.84.27-.98.27-1.84v-57.91q0-.75-.27-1.73-.27-.97-.76-1.84-.49-.86-1.14-1.46-.65-.59-1.51-.59h-.54v-1.09h41.67v10.07h-1.09q-.21-2.49-1.94-4.38-1.74-1.9-5.42-1.9h-21.75v27.38h17.97q2.49 0 4.16-1.51 1.68-1.52 1.68-3.57h1.08v13.53h-1.08q0-1.95-1.62-3.36-1.63-1.41-4.22-1.41h-17.97v32.8h23.7q2.06 0 3.57-.98 1.52-.97 2.55-2.32 1.02-1.36 1.51-2.93t.49-2.65h1.08v12.66Z" paint-order="stroke"/></g></g><path fill="#5e9c44" d="M432.07 141.487a17 17 0 0 0 2.258 1.44l.409.215q1.612.817 3.375 1.354l.43.13c3.87 1.031 8.385.902 13.717-1.033a11.61 11.61 0 0 0 7.052-7.396l.043-.107q.387-1.075.645-2.172a17.2 17.2 0 0 0 7.568-.322c.215 1.935.172 5.59.215 8.901.022 1.42 1.29 2.193 2.666 2.193h.409a2.795 2.795 0 0 0 2.3-2.537c.925-15.91-3.053-18.404-3.698-18.963s-1.526-.774-2.365-.645q-.774.108-1.376.645c-1.032.925-.946 2.387-.258 3.612.15.301.43.645.86 1.827-2.365.516-4.171.473-5.74.216v-1.226q0-1.29-.13-2.15v-.065l-.085-.86v-.043l-.043-.172v-.17l-.022-.044-.043-.28-.086-.366v-.043l-.13-.473-.042-.107a8.6 8.6 0 0 0-.494-1.225l-.043-.13-.387-.687-.065-.087a11 11 0 0 0-1.118-1.462l-.13-.128-.73-.688-.043-.022q-.387-.322-.86-.623l-.172-.13q-.473-.3-1.032-.559l-.215-.085a13 13 0 0 0-2.644-.86l-.323-.065-1.591-.236h-.13l-1.697-.087-.215-.02h-.194q-.924 0-1.935.085l-.43.043-1.978.258-.387.065q-1.161.193-2.408.473l-.602.15q-1.333.301-2.752.731-1.01.323-1.978.495-.322.086-.666.13a32 32 0 0 1-3.956.472l-1.118.043h-.796l-1.591-.043h-.193l-1.333-.13-.28-.042q-.537-.043-1.032-.13l-.258-.02-1.161-.216h-.107l-2-.43h-.064l-.774-.215-.151-.043-.516-.15-.107-.022-.452-.15-.086-.022-.215-.086h-.064l-.065-.043v.086l.022.065.043.171.02.172.044.216.065.28.064.214.215.86.022.15.15.538.065.258.172.623.086.215.215.753v.064l.989 2.882.043.15.387.967.064.216q.86 2.171 2.02 4.514l.066.108.58 1.075.108.215.645 1.075v.043a36.6 36.6 0 0 0 3.182 4.494l.215.236q.386.473.795.903l.15.15q1.334 1.42 2.882 2.58Z"/><path fill="#5e9c44" d="M485.11 131.575c-2.557.086-5.61 3.14-5.223 6.364.45 4.042-.301 7.01-1.527 8.256 3.16.301 4.924-2.86 4.945-2.88.796-1.657 2.45-2.71 3.978-1.657 1.01.688 3.44 2.473.795 5.612-.408.494-5.762 6.815-16.641 6.106-9.073-.58-9.503-4.365-10.277-5.332-1.677 1.935-3.87 2.73-6.708 3.762-3.59 1.29-7.396 1.42-10.728 1.42-2.666 0-7.44-1.226-9.46-2.796-9.675 11.051.559 33.11 4.558 39.947 9.933 16.986 21.93 19.372 28.444 15.91 3.763-1.978 5.053-.45 7.955.215 26.295 6.042 37.625-26.66 39-44.29.646-8.514-2.773-34.099-29.11-30.637m45.107-96.578 1.355.15v-.15Z"/><path fill="#5e9c44" d="M553.739 81.351c-1.032-.688-1.548-2.902-1.87-4.192a58 58 0 0 1-1.29-8.45c-.71-7.03-.86-14.125-.882-21.178-.022-5.245.043-6.45.194-11.695l.043-1.334.193-.473q.602-1.182 1.075-2.472c.774-2.129 2.322-4.085 1.59-6.278-.3-.903-2.45-6.558-3.568-7.396-.71-.538-7.525-1.978-11.245-1.978s-9.244 1.44-9.954 1.978c-1.118.86-3.268 6.493-3.57 7.396-.751 2.172.797 4.171 1.57 6.3q.474 1.268 1.076 2.45.17.323.214.474l.022.73.15 5.698c.108 6.536.108 9.051-.086 15.61-.215 6.47-.43 13.114-1.763 19.478-.344 1.634-.73 3.784-1.87 5.096-.731.86-2.365 1.698-3.376 2.515-2 1.613-3.762 3.526-5.31 5.547-3.118 4.02-5.246 6.02-5.72 13.781v25.822q3.312 2.171 5.655 5.031c.086-5.676-.215-17.178.215-16.64h46.978v47.751h-39.84c-1.375 9.846-4.945 22.144-11.136 32.1l.15.386c.688 1.548 1.935 4.3 3.16 5.483 1.29 1.247 2.71 1.698 4.344 2.257q5.568 1.913 11.416 2.408c9.267.817 20.102.43 28.917-2.709a8.6 8.6 0 0 0 3.763-2.236 15 15 0 0 0 3.182-4.623c1.16-2.794 1.699-5.482 1.699-5.783V101.69c-1.032-10.986-7.224-15.93-14.126-20.339m-22.382-15.78.13-3.85c.559-10.255.494-16.34.129-26.573l-1.355-.15h1.355v.15c2.257.214 5.074.494 6.32.494 1.548 0 5.375-.387 7.697-.645l-.13 3.397a260 260 0 0 0-.063 13.803c.064 4 .172 9.374.43 13.373Zm508.074 97.275c-3.065 7.288-58.085 5.005-97.568-10.174-35.501-13.696-43.912-36.026-35.266-50.958 6.55-11.22 18.655-14.19 38.12-7.04-8.746 5.032-12.677 16.018-9.247 25.85-.724-10.818 6.17-20.577 16.244-22.99q8.803 3.905 19.44 10.34c-8.978 4.917-13.092 16.06-9.615 26.042-.692-10.367 5.624-19.828 15.143-22.687q10.769 6.6 20.28 12.732c-5.594 5.813-7.456 14.51-4.77 22.275-.545-7.713 2.858-15.15 8.935-19.525 25.02 16.363 41.134 29.37 38.252 36.163m-137.995-64.46c-2.87 4.898-4.268 10.59-4.01 16.335l-21.824 3.438c-2.53.38-4.89-1.425-5.318-4.07-1.52-9.46 16.139-4.538 16.61-10.01.289-3.218-1.938-3.356-12.968-7.618-1.13-.43-2.03-1.348-2.47-2.52a4.6 4.6 0 0 1 .164-3.613c3.72-7.837 15.982 7.37 20.226 1.843 3.72-4.895-11.973-14.218-4.06-19.47 1.773-1.199 4.133-.713 5.344 1.1l12.707 18.7q-2.49 2.558-4.401 5.858m189.399-61.106c1.138-4.76.3-9.803-2.308-13.877s-6.74-6.796-11.368-7.49c-5.688-.987-11.466 1.114-15.353 5.582 1.912 4.538 2.62 9.653 1.834 14.905l-.21.99c-2.563-10.449-10.764-18.323-20.907-20.074-7.506-1.335-15.188.907-20.961 6.116s-9.038 12.844-8.907 20.833c-10.48-.275-19.65 7.178-21.327 17.82-1.808 11.688 6.21 22.798 17.894 24.778a21.02 21.02 0 0 0 15.956-3.658c7.677 11.605 12.838 25.905 13.939 44.633l23.16.687c1.022-17.132 2.935-33.55 7.127-48.125 14.357 9.625 33.588.935 36.287-16.445 1.697-11.463-4.507-22.602-14.856-26.675m-45.064 65.89c-2.358-10.532-6.34-19.745-12.654-27.06 4.506 1.87 9.432.88 12.916-2.365.996 9.543.786 19.36-.262 29.425m10.454-2.31a167 167 0 0 1-2.594-25.382q3.826 2.2 8.227 1.43c-2.698 6.407-4.35 15.565-5.633 23.952"/><rect width="204.557" height="167.715" x="166.97" y="-296.45" fill="none" rx="0" ry="0" transform="translate(424.94 400)scale(1.35)"/><path fill="#eee" d="M699.697 74.59h-38.4q.44 3.88 1.88 7.36 1.44 3.49 3.82 6.14 2.38 2.66 5.81 4.26 3.43 1.61 7.96 1.61 2.44 0 5.15-.72t5.03-2.05q2.33-1.33 4.15-3.26 1.83-1.94 2.49-4.37h1v8.3q-.67 0-1.5.44t-1.93 1.1q-2.21 1.33-5.98 2.83-3.76 1.49-9.96 1.49-4.97 0-9.46-1.44-4.48-1.44-7.91-4.42-3.43-2.99-5.48-7.64-2.04-4.65-2.04-11.06 0-4.1 1.38-8.3 1.38-4.21 4.21-7.58 2.82-3.38 7.24-5.48 4.43-2.1 10.63-2.1 5.53 0 9.68 1.88t6.86 5.2 4.04 7.86q1.33 4.53 1.33 9.95m-22.36-21.24q-3.87 0-6.69 1.55t-4.81 3.98q-2 2.44-3.1 5.53-1.11 3.1-1.44 6.2h31.53q-.11-3.21-1.16-6.31t-2.93-5.53-4.76-3.93q-2.87-1.49-6.64-1.49m54.56 64.17q3.32 0 6.31-.61t5.26-1.72q2.27-1.1 3.59-2.65 1.33-1.55 1.33-3.32 0-1.88-1.82-3.21-1.83-1.33-4.93-2.32-3.1-1-7.19-1.72t-8.52-1.49l-5.64-1q-2.55 1.99-3.54 4.21-1 2.21-1 3.87 0 2.32 1.27 4.15 1.27 1.82 3.43 3.15t5.09 1.99q2.93.67 6.36.67m-7.74-24.35 13.83 2.22q4.43.66 7.36 1.77 2.93 1.1 4.7 2.6 1.77 1.49 2.44 3.32.66 1.82.66 3.93 0 3.76-2.05 6.52-2.04 2.77-5.31 4.6-3.26 1.82-7.41 2.71-4.15.88-8.47.88-4.2 0-8.07-.83-3.88-.83-6.86-2.49-2.99-1.66-4.76-4.15t-1.77-5.7q0-2.87 1.77-5.47t5.75-5.15q-3.87-1.99-5.92-5.37-2.05-3.37-2.05-6.91 0-2.1 1-4.15t3.21-3.82q-1.88-2.21-2.66-4.42-.77-2.22-.77-4.76 0-3.99 1.66-7.42t4.54-5.97q2.87-2.55 6.74-3.98 3.88-1.44 8.3-1.44 4.65 0 8.86 1.6 4.2 1.61 7.08 4.15h7.96v3.98h-5.09q.78 1.66 1.55 3.93.78 2.27.78 4.71 0 3.54-1.66 6.69t-4.59 5.53q-2.94 2.38-6.86 3.76-3.93 1.39-8.36 1.39-4.09 0-7.97-1.22-3.87-1.22-6.86-3.54-1.21.77-1.66 1.94-.44 1.16-.44 2.38 0 3.54 3.21 5.47 3.21 1.94 8.19 2.71m4.54-39.61q-2.66 0-4.98.94-2.33.94-4.1 2.6t-2.82 4.04-1.05 5.37q0 3.65 1.49 6.52 1.5 2.88 3.82 4.76t5.15 2.88q2.82 1 5.36 1 2.77 0 5.04-1.06 2.27-1.05 3.93-2.87 1.66-1.83 2.54-4.26.89-2.44.89-5.09 0-3.32-1.33-6.09-1.33-2.76-3.49-4.7t-4.92-2.99q-2.77-1.05-5.53-1.05m74.91 43.39h-10.74V91.3l-.55.56q-2.77 2.76-6.36 4.31-3.6 1.55-8.69 1.55-3.87 0-6.64-.89-2.76-.88-4.53-2.48-1.77-1.61-2.6-3.71t-.83-4.43q0-3.76 2.04-6.64 2.05-2.87 5.92-5.09 3.88-2.21 9.46-4.04 5.59-1.82 12.78-3.59-.22-4.32-1.77-6.97-1.55-2.66-3.65-4.15-2.1-1.5-4.42-1.99-2.33-.5-3.99-.5-2.87 0-5.03.88-2.16.89-3.76 2.27-1.61 1.38-2.71 2.99-1.11 1.6-1.78 3.04h-.99v-8.08q.88-.11 1.66-.55.77-.44 1.88-.88 1.66-.67 4.54-1.94 2.87-1.27 8.07-1.27 6.09 0 9.85 1.55t5.81 4.09q2.05 2.55 2.71 5.81.67 3.26.67 6.69v21.91q0 2.22.99 4.15 1 1.94 2.66 1.94Zm-11.95-9.19 1.21-1.33V70.61l-1.1.22q-2.66.67-6.48 1.77-3.81 1.11-7.24 2.88t-5.87 4.2q-2.43 2.44-2.43 5.65 0 3.54 2.88 5.86 2.87 2.33 7.52 2.33 3.65 0 6.42-1.61 2.76-1.6 5.09-4.15m67.05-19.36v21.35q0 .89.22 1.94.23 1.05.72 1.94.5.88 1.11 1.55.61.66 1.49.66v1.11h-14.27v-1.11q.77 0 1.44-.66.66-.67 1.16-1.55.5-.89.72-1.94t.22-1.94V69.17q0-3.98-1.11-6.97-1.1-2.99-2.98-4.98t-4.26-2.93-4.82-.94q-2.43 0-4.81.99-2.38 1-4.21 2.6-1.82 1.61-2.98 3.77-1.17 2.15-1.17 4.48v24.56q0 .89.23 1.94.22 1.05.72 1.94.49.88 1.1 1.55.61.66 1.5.66v1.11h-14.39v-1.11q.78 0 1.44-.66.66-.67 1.16-1.55.5-.89.72-1.94t.22-1.94V59.21q0-1.88-.55-3.59-.55-1.72-3.21-1.83v-.99l11.06-3.55v6.09q.78-.88 2-1.94 1.21-1.05 2.93-1.99 1.71-.94 3.98-1.55t5.37-.61q5.2 0 8.85 1.77 3.65 1.78 5.98 4.6 2.32 2.82 3.37 6.19 1.05 3.38 1.05 6.59m-175.06 129.83v-1.11q2.1 0 2.1-1.55 0-.55-1.32-2.43l-11.07-15.27-11.51 15.6q-.33.44-.77 1.21-.45.78-.45 1.33 0 1.11 1.22 1.11v1.11h-10.4v-1.11q1.55 0 3.32-1.27 1.77-1.28 2.99-3.05l13.39-18.14-12.4-16.82-1.27-1.55q-.72-.89-1.66-1.66-.94-.78-1.88-1.27-.94-.5-1.71-.5v-1.11h16.15v1.11q-.66 0-1.38.44t-.72 1.66q0 .78.66 1.55l8.96 12.39 8.53-11.28q.88-1.11 1.1-1.77.22-.67.22-1.22 0-.67-.38-1.22-.39-.55-1.17-.55v-1.11h10.63v1.11q-1.77 0-3.32 1.71-1.55 1.72-2.77 3.27l-10.73 14.27 14.82 20.03q1.44 1.99 3.43 3.49 2 1.49 3.66 1.49v1.11Zm46.37-42.72h-12.39v26.67q0 2.88.11 5.2.11 2.33.55 3.87.45 1.55 1.33 2.38.89.83 2.44.83 2.32 0 4.37-2.21 2.04-2.21 2.6-5.31h.99v8.08q-.99 0-1.66.66-.88.78-2.49 1.66-1.6.89-4.81.89-3.98 0-6.2-1.55-2.21-1.55-3.2-4.1-1-2.54-1.17-5.64-.16-3.1-.16-6.31v-25.12h-6.2v-3.76h6.2v-9.85q0-1.88-.5-3.48-.5-1.61-3.26-1.72v-1.1l11.06-3.54v19.69h12.39Zm38.62-2.44-3.32 6.75q-1.33-2.21-2.76-2.77-1.44-.55-3.32-.55-1.22 0-2.6.55-1.39.56-2.72 1.44-1.32.89-2.6 1.94-1.27 1.05-2.15 1.93v28.77q0 .89.22 1.89.22.99.72 1.93t1.1 1.55q.61.61 1.5.61v1.11h-14.39v-1.11q.78 0 1.44-.61.67-.61 1.16-1.55.5-.94.72-1.93.22-1 .22-1.89v-30.87q0-1.55-.99-3.1-1-1.55-2.88-1.99v-.88l11.18-3.32v6.64q.99-1.22 2.1-2.38t2.49-2.11q1.38-.94 3.04-1.54 1.66-.61 3.87-.61 1.55 0 3.99.66 2.43.67 3.98 1.44m51.45 22.8h-38.39q.44 3.88 1.88 7.36 1.44 3.49 3.82 6.14 2.38 2.66 5.81 4.26 3.43 1.61 7.96 1.61 2.44 0 5.15-.72t5.03-2.05q2.33-1.33 4.15-3.26 1.83-1.94 2.49-4.37h1v8.3q-.67 0-1.5.44t-1.93 1.1q-2.21 1.33-5.98 2.83-3.76 1.49-9.96 1.49-4.98 0-9.46-1.44t-7.91-4.42q-3.43-2.99-5.48-7.64-2.04-4.65-2.04-11.06 0-4.1 1.38-8.3 1.38-4.21 4.21-7.58 2.82-3.38 7.24-5.48 4.43-2.1 10.63-2.1 5.53 0 9.68 1.88t6.86 5.2 4.04 7.86q1.32 4.53 1.32 9.95m-22.35-21.24q-3.87 0-6.69 1.55t-4.81 3.98q-2 2.44-3.1 5.53-1.11 3.1-1.44 6.2h31.53q-.11-3.21-1.16-6.31-1.05-3.09-2.93-5.53-1.88-2.43-4.76-3.93-2.87-1.49-6.64-1.49m102.36 15.7v20.69q0 .89.22 1.94t.66 1.94q.44.88 1.05 1.55.61.66 1.5.66v1.11h-14.39v-1.11q.89 0 1.55-.66.67-.67 1.16-1.55.5-.89.72-1.94t.22-1.94v-23.9q0-2.54-.72-4.87-.71-2.32-2.15-4.04-1.44-1.71-3.54-2.76-2.11-1.05-4.76-1.05-2.99 0-5.15 1.38t-3.54 3.38q-1.38 1.99-2.05 4.03-.66 2.05-.66 3.38v24.45q0 .89.22 1.94t.72 1.94q.5.88 1.11 1.55.61.66 1.49.66v1.11h-14.27v-1.11q.77 0 1.44-.66.66-.67 1.16-1.55.5-.89.72-1.94t.22-1.94v-24.56q0-2.66-.94-4.93-.94-2.26-2.55-3.81-1.6-1.55-3.65-2.44-2.05-.88-4.15-.88-2.88 0-5.03 1.1-2.16 1.11-3.54 2.77-1.39 1.66-2.11 3.6-.72 1.93-.72 3.7v25.45q0 .89.23 1.94.22 1.05.71 1.94.5.88 1.11 1.55.61.66 1.5.66v1.11h-14.28v-1.11q.78 0 1.44-.66.66-.67 1.16-1.55.5-.89.72-1.94t.22-1.94v-29.54q0-.89-.11-1.99-.11-1.11-.44-2.1-.33-1-1.11-1.66-.77-.67-2.1-.67v-.99l10.95-3.66v5.65q1.66-1.88 4.6-3.65 2.93-1.77 7.69-1.77 3.1 0 5.53.88 2.43.89 4.26 2.27t3.15 3.15q1.33 1.77 2.22 3.43.88-1.66 2.1-3.37 1.22-1.72 2.93-3.16 1.72-1.43 4.09-2.32 2.38-.88 5.59-.88 6.2 0 9.74 2.21t5.26 5.31q1.71 3.1 2.15 6.47.45 3.38.45 5.7"/></g><path fill="transparent" stroke="transparent" d="M406.5 0h687v226h-687z"/></g></svg>